<svg width="400" height="300" viewBox="0 0 400 300" fill="none" xmlns="http://www.w3.org/2000/svg">
  <defs>
    <linearGradient id="gradient" x1="0%" y1="0%" x2="100%" y2="100%">
      <stop offset="0%" style="stop-color:#888888;stop-opacity:0.1" />
      <stop offset="100%" style="stop-color:#888888;stop-opacity:0.05" />
    </linearGradient>
  </defs>

  <!-- Background -->
  <rect width="400" height="300" fill="url(#gradient)" />

  <!-- Abstract pattern representing nature/growth -->
  <path d="M200 50 C180 80, 160 120, 180 150 C200 180, 220 180, 240 150 C260 120, 240 80, 220 50 C210 40, 190 40, 200 50Z" fill="#10b981" opacity="0.1"/>
  <path d="M150 100 C140 120, 135 140, 145 160 C155 180, 165 180, 175 160 C185 140, 180 120, 170 100 C165 95, 155 95, 150 100Z" fill="#10b981" opacity="0.08"/>
  <path d="M250 100 C240 120, 235 140, 245 160 C255 180, 265 180, 275 160 C285 140, 280 120, 270 100 C265 95, 255 95, 250 100Z" fill="#10b981" opacity="0.08"/>

  <!-- Leaf shapes representing Epipremnum (pothos plant) -->
  <path d="M200 150 Q180 170, 200 190 Q220 170, 200 150Z" fill="#10b981" opacity="0.2"/>
  <path d="M180 170 Q160 190, 180 210 Q200 190, 180 170Z" fill="#10b981" opacity="0.15"/>
  <path d="M220 170 Q200 190, 220 210 Q240 190, 220 170Z" fill="#10b981" opacity="0.15"/>

  <!-- Small dots for texture -->
  <circle cx="150" cy="80" r="2" fill="#10b981" opacity="0.3"/>
  <circle cx="250" cy="80" r="2" fill="#10b981" opacity="0.3"/>
  <circle cx="130" cy="200" r="2" fill="#10b981" opacity="0.3"/>
  <circle cx="270" cy="200" r="2" fill="#10b981" opacity="0.3"/>
  <circle cx="200" cy="220" r="2" fill="#10b981" opacity="0.3"/>

  <!-- Central text -->
  <text x="200" y="260" font-family="system-ui, -apple-system, sans-serif" font-size="14" fill="#6b7280" text-anchor="middle" font-weight="500">
    Epipremnum
  </text>
</svg>